<svg xmlns="http://www.w3.org/2000/svg" xmlns:xlink="http://www.w3.org/1999/xlink" version="1.1" x="0px" y="0px" viewBox="0 0 60 60" enable-background="new 0 0 60 60" xml:space="preserve"><g><path fill="#222222" d="M39.859,13.826C36.308,10.275,31.654,8.5,27,8.5s-9.308,1.775-12.859,5.326   c-7.102,7.102-7.102,18.616,0,25.718c3.551,3.551,8.205,5.326,12.859,5.326s9.308-1.775,12.859-5.326   C46.961,32.443,46.961,20.928,39.859,13.826z M36.324,36.009c-2.49,2.49-5.802,3.862-9.324,3.862s-6.833-1.372-9.324-3.862   c-5.141-5.141-5.141-13.506,0-18.647c2.49-2.49,5.802-3.862,9.324-3.862s6.833,1.372,9.324,3.862   C41.465,22.503,41.465,30.868,36.324,36.009z"/><path fill="#222222" d="M50.768,46.232l-5.75-5.75c-0.977-0.977-2.559-0.977-3.535,0s-0.977,2.559,0,3.535l5.75,5.75   C47.721,50.256,48.36,50.5,49,50.5s1.279-0.244,1.768-0.732C51.744,48.791,51.744,47.209,50.768,46.232z"/></g></svg>