<svg xmlns="http://www.w3.org/2000/svg" xmlns:xlink="http://www.w3.org/1999/xlink" xml:space="preserve" version="1.1" style="shape-rendering:geometricPrecision;text-rendering:geometricPrecision;image-rendering:optimizeQuality;" viewBox="0 0 0.623 0.623" x="0px" y="0px" fill-rule="evenodd" clip-rule="evenodd">
<defs>
    <style type="text/css">
   
    .fil0 {fill:#1081b0}
   
    </style>
</defs>
    <g>
        <path class="fil0" d="M0 0.142l0 0.339c0,0.039 0.016,0.075 0.042,0.101 0.025,0.025 0.061,0.041 0.1,0.041l0.339 0c0.039,0 0.075,-0.016 0.101,-0.041 0.025,-0.026 0.041,-0.062 0.041,-0.101l0 -0.339c0,-0.039 -0.016,-0.075 -0.041,-0.1 -0.026,-0.026 -0.062,-0.042 -0.101,-0.042l-0.339 0c-0.039,0 -0.075,0.016 -0.1,0.042 -0.026,0.025 -0.042,0.061 -0.042,0.1zm0.333 0.323c-0.011,0.011 -0.029,0.011 -0.04,0 -0.012,-0.011 -0.012,-0.029 0,-0.04l0.085 -0.085 -0.201 0c-0.037,0 -0.037,-0.057 0,-0.057l0.201 0 -0.085 -0.085c-0.012,-0.011 -0.012,-0.029 0,-0.04 0.011,-0.011 0.029,-0.011 0.04,0l0.133 0.134 0.008 0.02 -0.008 0.02 -0.133 0.133z"/>
    </g>
</svg>